<svg id="Layer_1" data-name="Layer 1" xmlns="http://www.w3.org/2000/svg" viewBox="0 0 115.9 122.88"><defs><style>.cls-1{fill-rule:evenodd;}</style></defs><title>beans</title><path stroke="#964B00" fill="#964B00" class="cls-1" d="M107.17,30.52C111,45.61,104.7,68.37,87.28,71.58a14.31,14.31,0,0,1-10.81-2C64.85,61.65,72.33,50.19,69,39.49c-1.59-5.13-4.65-8.53-7.26-12.22C54.4,16.85,57.07,3.77,69.69.58c16.66-4.21,33.76,15.25,37.48,29.94ZM68.28,121.46c-.73-.21-1.46-.44-2.18-.69a44.15,44.15,0,0,1-19.7-14.53c-5.1-6.79-7.76-15-5.4-23.34.14-.5.3-1,.47-1.48a17.46,17.46,0,0,1,3.18-5.59,14.91,14.91,0,0,1,4.87-3.76c9-4.32,14.81-.51,20.94,3.49,3.13,2,6.33,4.12,10,5,3.92.88,7.5.47,11,.07.8-.09,1.6-.18,2.68-.28a24.14,24.14,0,0,1,8.79.75,18.72,18.72,0,0,1,8.83,5.32,15.86,15.86,0,0,1,4.09,9.33,19.15,19.15,0,0,1-.72,7c-2.29,8.08-9,13.59-17.18,16.77-9.65,3.78-21.33,4.3-29.65,1.95Zm3.06-32c3.06,5.68,12.16,6.9,16,3.07,2.84-2.87,1.17-2.36-1-1.94a19.21,19.21,0,0,1-13.58-2.47c-2.08-1.2-3.39-2.4-1.38,1.34Zm-4.06,28c.65.23,1.31.44,2,.62,7.66,2.17,18.46,1.68,27.42-1.83,7.19-2.82,13.12-7.57,15.07-14.44a16,16,0,0,0,.6-5.77,12.4,12.4,0,0,0-3.18-7.28A15.29,15.29,0,0,0,102,84.45a20.65,20.65,0,0,0-7.53-.64c-.68.06-1.63.17-2.59.28-3.78.43-7.65.88-12.17-.14-4.27-1-7.74-3.23-11.12-5.44-5.29-3.44-10.32-6.73-17.5-3.26a11.39,11.39,0,0,0-3.72,2.87,14.05,14.05,0,0,0-2.53,4.47c-.15.43-.29.85-.41,1.26-2,7.15.34,14.31,4.83,20.27a40.37,40.37,0,0,0,18.06,13.32Zm12.87-75c2.46-5.42-.84-12.95-5.69-14.35-3.31-1-3.26-.39-1.48,1.61a18.94,18.94,0,0,1,4.79,12.1c.14,3.15,0,6,2.38.64ZM34.05,49c-5.73,1.63-9,9.11-7.09,13.78,1.81,4.36,2.24,3,2.53-.19a19.31,19.31,0,0,1,5.74-11.88c1.9-1.94,3.25-3-1.18-1.71ZM5.83,38.56c8-13.38,28.51-25,43.1-15a14.26,14.26,0,0,1,6.21,9.07c2.62,13.81-10.77,16.62-16,26.54C36.66,64,36.41,68.52,35.65,73,33.49,85.54,22.34,92.9,11.17,86.23-3.59,77.42-1.92,51.57,5.83,38.56Z"/></svg>