<?xml version="1.0" encoding="utf-8"?>
<!-- Generator: Adobe Illustrator 27.0.0, SVG Export Plug-In . SVG Version: 6.00 Build 0)  -->
<svg version="1.1" id="Layer_1" xmlns="http://www.w3.org/2000/svg" xmlns:xlink="http://www.w3.org/1999/xlink" x="0px" y="0px"
	 viewBox="0 0 400 179.6" style="enable-background:new 0 0 400 179.6;" xml:space="preserve">
<style type="text/css">
	.st0{fill:#FFFFFF;}
</style>
<g>
	<g>
		<path class="st0" d="M5.4,151.4c-0.1,0-0.1,0-0.2,0c-1-0.1-1.7-0.9-1.6-1.9c1.7-17.4,7-34,15.6-49.2c0.5-0.8,1.5-1.1,2.4-0.7
			c0.8,0.5,1.1,1.5,0.7,2.4c-8.4,14.8-13.5,30.9-15.1,47.9C7,150.7,6.3,151.4,5.4,151.4z"/>
		<path class="st0" d="M213.5,72.7c-0.4,0-0.8-0.2-1.2-0.5c-6.1-5.6-12.7-10.7-19.8-14.9c-0.8-0.5-1.1-1.6-0.6-2.4
			c0.5-0.8,1.6-1.1,2.4-0.6c7.3,4.4,14.1,9.6,20.3,15.4c0.7,0.7,0.7,1.8,0.1,2.5C214.4,72.5,213.9,72.7,213.5,72.7z"/>
		<path class="st0" d="M252.6,151.1c-0.9,0-1.6-0.7-1.7-1.6c-1.3-12.4-4.4-24.4-9.3-35.8c-0.4-0.9,0-1.9,0.9-2.3
			c0.9-0.4,1.9,0,2.3,0.9c5,11.7,8.2,24.1,9.5,36.8c0.1,1-0.6,1.8-1.6,1.9C252.7,151.1,252.6,151.1,252.6,151.1z"/>
		<path class="st0" d="M241.6,113.7c-2-4.7-4.4-9.3-7-13.7l3-1.8c2.7,4.5,5.1,9.3,7.2,14.1L241.6,113.7z"/>
		<path class="st0" d="M234.6,100c-3.3-5.7-7.2-11.1-11.4-16.2l2.7-2.2c4.3,5.2,8.3,10.8,11.7,16.6L234.6,100z"/>
		<path class="st0" d="M223.2,83.8c-3.4-4.1-7.1-8-10.9-11.6l2.4-2.6c4,3.7,7.8,7.7,11.3,11.9L223.2,83.8z"/>
		<path class="st0" d="M48.8,68.9c-0.5,0-1-0.2-1.3-0.6c-0.6-0.7-0.5-1.8,0.2-2.5c4.9-4.1,10.1-7.9,15.6-11.3
			c0.8-0.5,1.9-0.2,2.4,0.6c0.5,0.8,0.2,1.9-0.6,2.4c-5.3,3.2-10.4,6.9-15.2,11C49.6,68.8,49.2,68.9,48.8,68.9z"/>
		<path class="st0" d="M30.8,88.9L28,86.8c5.7-7.7,12.4-14.7,19.7-20.9l2.3,2.7C42.8,74.5,36.3,81.4,30.8,88.9z"/>
		<path class="st0" d="M22.2,101.9l-3-1.7c2.6-4.6,5.6-9.2,8.8-13.5l2.8,2.1C27.7,93,24.8,97.4,22.2,101.9z"/>
		<g>
			<path class="st0" d="M184.8,65.7l0-0.7l-0.1-0.7l-0.2-0.7l-0.3-0.6l-0.3-0.6l-0.4-0.6l-0.4-0.6l-0.5-0.5l-0.6-0.5l-0.6-0.5
				l-0.6-0.5l-0.7-0.5l-0.7-0.4l-0.8-0.4l-0.8-0.4l-0.9-0.4l-0.9-0.4l-0.9-0.3l-1-0.3l-1-0.3l-1-0.3l-1.1-0.3l-1.1-0.2l-0.1,0
				l1.6-0.4l1.7-0.6l1.7-0.7l1.6-0.8l1.5-1l1.4-1.2l1.3-1.4l1.1-1.6l1-1.9l0.8-2.1l0.6-2.4l0.5-2.6l0.3-2.9l0.1-3.2l0,0v0l0-0.1
				l0-0.1l0-0.1l0-0.1l0-0.1l0-0.1l0-0.1l0-0.1l0-0.1l0-0.1l0,0l0,0l0,0l0,0l0,0l0,0l0,0l0,0l0,0l0,0l-0.1,0l0,0l-0.1,0l-0.1,0
				l-0.1,0l-0.1,0l-0.1,0l-0.1,0l-0.1,0l-0.1,0l-0.1,0h-0.1l-0.1,0l-2.5,0.1l-2.5,0.1l-2.5,0l-2.4,0l-2.4,0l-2.4,0l-2.4,0l-2.3,0
				l-2.3,0l-2.2,0l-2.2,0.1l-2.1,0.1l-2.1,0.2l-2,0.3l-1.9,0.4l-1.9,0.5l-1.8,0.6l-1.7,0.7l-1.6,0.9l-1.5,1l-1.4,1.2l-1.3,1.4
				l-1.2,1.6l-1,1.8l-0.9,2l-0.7,2.2l-0.6,2.4l-0.5,2.6l-0.3,2.8l-0.2,3.1l0,3.4l0.2,3.5v0l0,0.1v0l0,0l0,0l0,0l0.1,2.3l0,0l0,0.7
				l0.1,0.7l0.2,0.7l0.3,0.6L134,69l0.4,0.6l0.4,0.6l0.5,0.5l0.6,0.5l0.6,0.5l0.6,0.5l0.7,0.5l0.7,0.4l0.8,0.4l0.8,0.4l0.9,0.4
				l0.9,0.4l0.9,0.3l1,0.3l1,0.3l1,0.3l1.1,0.3l1.1,0.2l1.1,0.2l1.1,0.2l1.2,0.2l1.2,0.1l1.2,0.1l1.2,0.1l1.3,0.1l1.3,0l1.3,0l1.3,0
				l1.3,0l1.3-0.1l1.2-0.1l1.2-0.1l1.2-0.1l1.2-0.2l1.1-0.2l1.1-0.2l1.1-0.2L172,76l1-0.3l1-0.3l1-0.3l0.9-0.3l0.9-0.4l0.9-0.4
				l0.8-0.4l0.8-0.4l0.7-0.4l0.7-0.5l0.6-0.5l0.6-0.5l0.6-0.5l0.5-0.5l0.4-0.6l0.4-0.6l0.3-0.6l0.3-0.6l0.2-0.7l0.1-0.5l0-0.1l0,0
				l0-0.1L184.8,65.7z M160.1,56.5c4.2,0.6,7.5,3.9,7.9,8.1h-7.9V56.5z M181.2,36.6l1.1-1.2l-0.2,2.4l-0.4,2.4l-0.6,2.1l-0.7,1.9
				l-0.8,1.6l-0.9,1.4l-1.1,1.2l-1.2,1l-1.3,0.9l-1.4,0.7l-1.5,0.6l-1.6,0.5l-1.7,0.4l-1.7,0.3l-1.8,0.3l-1.9,0.2l-1.9,0.2l-2,0.2
				l-1.9,0.1h0v0l-0.1,0l-0.1,0l-1.2,0l-1.3,0.1l-1.2,0.1l-1.2,0.1l-1.2,0.1l-1.2,0.2l-1.1,0.2L148,55l-1.1,0.2l-1.1,0.3l-1,0.3
				l-1,0.3l-1,0.3l-0.9,0.3l-0.9,0.4l-0.9,0.4l-0.8,0.4l-0.8,0.4l-0.7,0.4l-0.7,0.5l-0.6,0.5l-0.6,0.5l-0.1,0.1l0-0.3l0.5-1.9
				l0.6-1.7l0.7-1.5l0.9-1.3l1-1.1l1.1-1l1.2-0.9l1.4-0.8l1.5-0.7l1.6-0.6L148,48l1.8-0.5l1.8-0.4l1.9-0.4l2-0.4l2-0.4l2-0.4
				l2.1-0.4l2.1-0.4l2.1-0.5l2.1-0.6l2.1-0.6l2-0.7l2-0.9l1.9-1l1.9-1.2l1.8-1.3L181.2,36.6z M135.2,53.5l0.3-2.7l0.4-2.4l0.6-2.2
				l0.7-2l0.8-1.7l0.9-1.5l1-1.3l1.1-1.2l1.2-1l1.3-0.9l1.4-0.7l1.5-0.6l1.6-0.5l1.7-0.4l1.8-0.3l1.9-0.2l2-0.2l2.1-0.1l2.1-0.1
				l2.2,0l2.3,0l2.3,0l2.4,0l2.4,0l2.4,0l2.5,0l2.5,0l2.3-0.1l0,0l-1.5,1.5l-1.6,1.4l-1.6,1.2l-1.7,1.1l-1.8,0.9l-1.8,0.8l-1.9,0.7
				l-1.9,0.6l-2,0.5l-2,0.5l-2,0.4l-2,0.4l-2,0.4l-2,0.3l-2,0.4l-2,0.4l-1.9,0.4l-1.9,0.5l-1.8,0.6l-1.7,0.6l-1.7,0.8l-1.6,0.9
				l-1.5,1l-1.3,1.2l-1.2,1.4l-1,1.5l-0.4,0.7L135.2,53.5z M135.6,64.6l0.2-0.4l0.2-0.4l0.3-0.4l0.3-0.4l0.4-0.4l0.4-0.4l0.2-0.2
				l0.7-0.5l1.8-1.1l1.8-0.9l1.9-0.7l1.9-0.6l2-0.5l2-0.4l1.2-0.2c-0.1,0.1-0.2,0.2-0.3,0.3c-2,2-3.2,4.5-3.4,7.3L135.6,64.6
				L135.6,64.6z M150.6,74.4l-1.1-0.2l-1.1-0.2l-1-0.2l-1-0.2l-1-0.3l-0.9-0.3l-0.9-0.3l-0.9-0.3l-0.8-0.3l-0.8-0.4l-0.7-0.4
				l-0.7-0.4l-0.6-0.4l-0.6-0.4l-0.5-0.4l-0.5-0.4l-0.4-0.4l-0.4-0.4l-0.3-0.4l-0.3-0.4l-0.2-0.4l0-0.1h11.5
				c0.3,2.6,1.5,4.9,3.3,6.8c0.2,0.2,0.3,0.3,0.5,0.5L150.6,74.4z M157.7,74.8c-4-0.5-7.3-3.6-7.9-7.6h7.9V74.8z M157.7,64.6h-8
				c0.5-4.2,3.8-7.6,8-8.1V64.6z M160.1,74.8v-7.6h7.9C167.2,71.1,164.1,74.2,160.1,74.8z M182,67.3l-0.2,0.4l-0.3,0.4l-0.3,0.4
				l-0.4,0.4l-0.4,0.4l-0.5,0.4l-0.5,0.4l-0.6,0.4l-0.6,0.4l-0.7,0.4l-0.7,0.4l-0.8,0.4l-0.8,0.3l-0.9,0.3l-0.9,0.3l-0.9,0.3l-1,0.3
				l-1,0.2l-1,0.2l-1.1,0.2l-1.1,0.2l-0.6,0.1c0.2-0.2,0.4-0.3,0.5-0.5c1.9-1.9,3-4.2,3.3-6.8L182,67.3L182,67.3z M170.5,64.6
				c-0.2-2.8-1.4-5.3-3.4-7.3c-0.1-0.1-0.2-0.2-0.4-0.3l0.4,0.1l1.1,0.2l1.1,0.2l1,0.2l1,0.2l1,0.3l0.9,0.3l0.9,0.3l0.9,0.3l0.8,0.3
				l0.8,0.4l0.7,0.4l0.7,0.4l0.6,0.4l0.6,0.4l0.5,0.4l0.5,0.4l0.4,0.4l0.4,0.4l0.3,0.4l0.3,0.4l0.2,0.4l0.2,0.4l0,0.1H170.5z"/>
			<g>
				<g>
					<path class="st0" d="M108.9,37.8c0,3.3-2.7,5.9-5.9,5.9c-3.3,0-5.9-2.7-5.9-5.9c0-3.3,2.7-5.9,5.9-5.9
						C106.2,31.9,108.9,34.6,108.9,37.8z"/>
					<path class="st0" d="M94,50.7c0,0-1.6-4.6-0.7-6.6c3.6-8.4-7-16.6-7-16.6s-1.2,3.7-1.2,7.8c0,4,1.3,8,4.6,10
						c2.7,1.6,3.2,6,3.2,6s-1.7-0.8-2.6-2.4c-0.8-1.6-3.5-6.3-14.4-5.4c-0.9,0.1-1.8,0.3-2.9,0.4c0,0,0.8,6,7.8,7.4
						c7.1,1.4,9-0.5,10.4,0.3c0.8,0.5,1.3,1.1,1.3,1.1L94,50.7z"/>
					<path class="st0" d="M92.3,61.2c0,0-5.5-8.2,3.9-12.1c7.4-3.2,15.8-3.3,18.8-8.2c0,0,4.2,6.6-1,10.3
						C108.9,55,95.1,55.8,92.3,61.2z"/>
					<path class="st0" d="M87.5,77.1c0,0-1.8-2.5-1.8-5.6c0.1-3.1,1.3-4.7,4.8-6.4c3.4-1.8,10.4-3.8,12.9-4.8
						c2.1-0.8,4.6-1.9,4.6-1.9s2.9,6.1-2.1,9c-4.9,2.9-6.1,2.7-11.1,4.6C88.2,74.5,87.5,77.1,87.5,77.1z"/>
				</g>
			</g>
		</g>
		<g>
			<g>
				<path class="st0" d="M39.2,139.9c1.8,0.9,2.8,2.4,2.8,4.5c0,1.7-0.6,3-1.7,3.9s-2.6,1.3-4.5,1.3h-6.8c-0.1,0-0.2,0-0.2-0.1
					s-0.1-0.1-0.1-0.2v-18.4c0-0.1,0-0.2,0.1-0.2s0.1-0.1,0.2-0.1h6.6c2,0,3.5,0.4,4.6,1.3s1.6,2.1,1.6,3.9c0,1.9-0.8,3.2-2.5,4
					C39.1,139.8,39.1,139.8,39.2,139.9z M31.7,133.5v5c0,0.1,0,0.1,0.1,0.1h3.7c1,0,1.7-0.2,2.3-0.7c0.6-0.5,0.8-1.1,0.8-1.9
					c0-0.8-0.3-1.5-0.8-2c-0.6-0.5-1.3-0.7-2.3-0.7h-3.7C31.7,133.3,31.7,133.4,31.7,133.5z M38,146.1c0.6-0.5,0.8-1.2,0.8-2.1
					c0-0.9-0.3-1.6-0.8-2.1s-1.3-0.7-2.3-0.7h-3.8c-0.1,0-0.1,0-0.1,0.1v5.4c0,0.1,0,0.1,0.1,0.1h3.9
					C36.7,146.9,37.4,146.6,38,146.1z"/>
				<path class="st0" d="M45.5,133.3c-0.4-0.4-0.5-0.8-0.5-1.4s0.2-1,0.5-1.4s0.8-0.5,1.4-0.5s1,0.2,1.4,0.5
					c0.4,0.4,0.5,0.8,0.5,1.4s-0.2,1-0.5,1.4c-0.4,0.4-0.8,0.5-1.4,0.5S45.9,133.7,45.5,133.3z M45.4,149.5
					c-0.1-0.1-0.1-0.1-0.1-0.2v-13.3c0-0.1,0-0.2,0.1-0.2s0.1-0.1,0.2-0.1h2.5c0.1,0,0.2,0,0.2,0.1s0.1,0.1,0.1,0.2v13.3
					c0,0.1,0,0.2-0.1,0.2s-0.1,0.1-0.2,0.1h-2.5C45.5,149.6,45.5,149.6,45.4,149.5z"/>
				<path class="st0" d="M54.3,148.8c-1-0.7-1.7-1.7-2.2-3c-0.3-1-0.5-2-0.5-3.1c0-1.2,0.1-2.2,0.4-3.1c0.4-1.3,1.1-2.3,2.2-3
					c1-0.7,2.3-1.1,3.7-1.1c1.4,0,2.6,0.4,3.6,1.1c1,0.7,1.7,1.7,2.1,2.9c0.3,0.9,0.5,1.9,0.5,3.1c0,1.1-0.2,2.2-0.5,3.1
					c-0.4,1.3-1.1,2.3-2.1,3c-1,0.7-2.2,1.1-3.6,1.1C56.5,149.9,55.3,149.5,54.3,148.8z M59.7,146.6c0.5-0.4,0.8-0.9,1-1.6
					c0.2-0.6,0.3-1.4,0.3-2.3c0-1-0.1-1.7-0.3-2.3c-0.2-0.7-0.5-1.2-1-1.6s-1.1-0.6-1.8-0.6c-0.7,0-1.2,0.2-1.7,0.6
					c-0.5,0.4-0.8,0.9-1.1,1.6c-0.2,0.6-0.3,1.4-0.3,2.3c0,0.9,0.1,1.6,0.3,2.3c0.2,0.7,0.5,1.2,1,1.6c0.5,0.4,1.1,0.6,1.8,0.6
					C58.6,147.1,59.2,146.9,59.7,146.6z"/>
				<path class="st0" d="M69.9,149.4l-4.4-13.3c0,0,0-0.1,0-0.1c0-0.2,0.1-0.2,0.3-0.2h2.8c0.2,0,0.3,0.1,0.4,0.3l2.6,9.1
					c0,0.1,0,0.1,0.1,0.1c0,0,0.1,0,0.1-0.1l2.6-9.1c0.1-0.2,0.2-0.3,0.4-0.3l2.8,0.1c0.1,0,0.2,0,0.2,0.1c0.1,0.1,0.1,0.2,0,0.3
					l-4.3,13.2c-0.1,0.2-0.2,0.3-0.4,0.3h-2.9C70.1,149.6,69.9,149.5,69.9,149.4z"/>
				<path class="st0" d="M91.3,142.7l0,0.8c0,0.2-0.1,0.3-0.3,0.3h-8.5c-0.1,0-0.1,0-0.1,0.1c0.1,0.6,0.1,1,0.2,1.2
					c0.4,1.3,1.5,2,3.2,2c1.2,0,2.2-0.5,2.9-1.5c0.1-0.1,0.2-0.2,0.3-0.2c0.1,0,0.1,0,0.2,0.1l1.7,1.4c0.2,0.1,0.2,0.3,0.1,0.4
					c-0.6,0.8-1.3,1.4-2.2,1.8c-0.9,0.4-2,0.7-3.1,0.7c-1.4,0-2.6-0.3-3.6-1s-1.7-1.5-2.2-2.7c-0.4-1-0.6-2.3-0.6-4.1
					c0-1,0.1-1.9,0.3-2.6c0.4-1.3,1-2.3,2.1-3c1-0.7,2.2-1.1,3.6-1.1c3.6,0,5.6,1.9,6,5.6C91.2,141.6,91.3,142.1,91.3,142.7z
					 M83.5,138.8c-0.4,0.3-0.8,0.8-0.9,1.4c-0.1,0.3-0.2,0.7-0.2,1.2c0,0.1,0,0.1,0.1,0.1h5.5c0.1,0,0.1,0,0.1-0.1
					c0-0.5-0.1-0.8-0.2-1c-0.2-0.7-0.5-1.2-1-1.5c-0.5-0.4-1.1-0.5-1.8-0.5C84.5,138.3,83.9,138.4,83.5,138.8z"/>
				<path class="st0" d="M102.1,135.9c0.1,0.1,0.2,0.2,0.2,0.4l-0.5,2.4c0,0.2-0.1,0.3-0.4,0.2c-0.3-0.1-0.6-0.1-1-0.1
					c-0.2,0-0.4,0-0.5,0c-0.8,0-1.4,0.3-1.9,0.8c-0.5,0.5-0.8,1.1-0.8,1.9v7.7c0,0.1,0,0.2-0.1,0.2s-0.1,0.1-0.2,0.1h-2.5
					c-0.1,0-0.2,0-0.2-0.1s-0.1-0.1-0.1-0.2v-13.2c0-0.1,0-0.2,0.1-0.2s0.1-0.1,0.2-0.1H97c0.1,0,0.2,0,0.2,0.1s0.1,0.1,0.1,0.2v1.2
					c0,0.1,0,0.1,0,0.1c0,0,0.1,0,0.1-0.1c0.8-1.2,1.8-1.8,3.2-1.8C101.2,135.6,101.7,135.7,102.1,135.9z"/>
				<path class="st0" d="M106.4,149.3c-0.9-0.3-1.5-0.8-2-1.4c-0.5-0.6-0.7-1.2-0.7-2v-0.2c0-0.1,0-0.2,0.1-0.2s0.1-0.1,0.2-0.1h2.4
					c0.1,0,0.2,0,0.2,0.1s0.1,0.1,0.1,0.2v0.1c0,0.5,0.2,0.8,0.7,1.2s1.1,0.5,1.9,0.5c0.7,0,1.3-0.1,1.8-0.4
					c0.5-0.3,0.7-0.7,0.7-1.1c0-0.4-0.2-0.7-0.6-0.9c-0.4-0.2-1-0.4-1.8-0.7l-1-0.3c-0.9-0.3-1.7-0.6-2.3-0.9
					c-0.6-0.3-1.2-0.7-1.6-1.3s-0.7-1.2-0.7-2.1c0-1.3,0.5-2.3,1.5-3c1-0.8,2.3-1.1,3.9-1.1c1.1,0,2.1,0.2,2.9,0.5
					c0.8,0.4,1.5,0.8,1.9,1.5s0.7,1.3,0.7,2.1c0,0.1,0,0.2-0.1,0.2c-0.1,0.1-0.1,0.1-0.2,0.1h-2.3c-0.1,0-0.2,0-0.2-0.1
					c-0.1-0.1-0.1-0.1-0.1-0.2c0-0.5-0.2-0.9-0.7-1.2c-0.5-0.3-1.1-0.5-1.9-0.5c-0.7,0-1.3,0.1-1.7,0.4c-0.4,0.3-0.7,0.6-0.7,1.1
					c0,0.4,0.2,0.8,0.6,1c0.4,0.2,1.1,0.5,2.1,0.7l0.6,0.2c1,0.3,1.8,0.6,2.4,0.9s1.2,0.7,1.7,1.2c0.5,0.5,0.7,1.2,0.7,2.1
					c0,1.3-0.5,2.3-1.5,3c-1,0.7-2.4,1.1-4,1.1C108.2,149.8,107.2,149.6,106.4,149.3z"/>
				<path class="st0" d="M118,133.3c-0.4-0.4-0.5-0.8-0.5-1.4s0.2-1,0.5-1.4s0.8-0.5,1.4-0.5s1,0.2,1.4,0.5c0.4,0.4,0.5,0.8,0.5,1.4
					s-0.2,1-0.5,1.4c-0.4,0.4-0.8,0.5-1.4,0.5S118.4,133.7,118,133.3z M117.9,149.5c-0.1-0.1-0.1-0.1-0.1-0.2v-13.3
					c0-0.1,0-0.2,0.1-0.2s0.1-0.1,0.2-0.1h2.5c0.1,0,0.2,0,0.2,0.1s0.1,0.1,0.1,0.2v13.3c0,0.1,0,0.2-0.1,0.2s-0.1,0.1-0.2,0.1h-2.5
					C118,149.6,117.9,149.6,117.9,149.5z"/>
				<path class="st0" d="M131.8,138.2c-0.1,0.1-0.1,0.1-0.2,0.1h-2.8c-0.1,0-0.1,0-0.1,0.1v6.5c0,0.7,0.1,1.2,0.4,1.5
					c0.3,0.3,0.8,0.5,1.4,0.5h0.8c0.1,0,0.2,0,0.2,0.1s0.1,0.1,0.1,0.2v2c0,0.2-0.1,0.3-0.3,0.4l-1.4,0c-1.4,0-2.5-0.2-3.2-0.7
					c-0.7-0.5-1.1-1.4-1.1-2.8v-7.7c0-0.1,0-0.1-0.1-0.1H124c-0.1,0-0.2,0-0.2-0.1s-0.1-0.1-0.1-0.2v-1.9c0-0.1,0-0.2,0.1-0.2
					s0.1-0.1,0.2-0.1h1.5c0.1,0,0.1,0,0.1-0.1v-3.2c0-0.1,0-0.2,0.1-0.2s0.1-0.1,0.2-0.1h2.4c0.1,0,0.2,0,0.2,0.1s0.1,0.1,0.1,0.2
					v3.2c0,0.1,0,0.1,0.1,0.1h2.8c0.1,0,0.2,0,0.2,0.1c0.1,0.1,0.1,0.1,0.1,0.2v1.9C131.9,138.1,131.9,138.1,131.8,138.2z"/>
				<path class="st0" d="M134.3,154.9c0-0.1-0.1-0.1-0.1-0.2v-2c0-0.1,0-0.2,0.1-0.2s0.1-0.1,0.2-0.1h0c0.7,0,1.3-0.1,1.7-0.2
					c0.4-0.1,0.8-0.4,1-0.8c0.3-0.4,0.5-1,0.7-1.7c0,0,0-0.1,0-0.2l-4.5-13.4c0,0,0-0.1,0-0.1c0-0.2,0.1-0.2,0.3-0.2h2.7
					c0.2,0,0.3,0.1,0.4,0.3l2.7,9.6c0,0.1,0,0.1,0.1,0.1c0,0,0.1,0,0.1-0.1l2.7-9.6c0.1-0.2,0.2-0.3,0.4-0.3h2.6
					c0.1,0,0.2,0,0.2,0.1c0,0.1,0,0.2,0,0.3l-4.8,14.3c-0.5,1.3-0.9,2.2-1.3,2.9c-0.4,0.6-1,1.1-1.8,1.4s-1.8,0.4-3.2,0.4h-0.2
					C134.4,155,134.3,155,134.3,154.9z"/>
				<path class="st0" d="M169,149.4c0,0.1-0.1,0.2-0.3,0.2h-2.8c-0.2,0-0.3-0.1-0.4-0.2l-1.2-1.4c-0.1-0.1-0.1-0.1-0.2,0
					c-1.7,1.2-3.5,1.8-5.5,1.8c-1.7,0-3-0.4-4.1-1.2c-1.1-0.8-1.6-1.9-1.6-3.5c0-1.2,0.3-2.3,1-3.1c0.7-0.9,1.6-1.6,2.8-2.4
					c0.1-0.1,0.1-0.1,0-0.2c-1-1.2-1.6-2.1-1.9-2.7c-0.3-0.6-0.5-1.3-0.5-2c0-0.8,0.2-1.6,0.7-2.3c0.4-0.7,1-1.2,1.8-1.6
					c0.8-0.4,1.7-0.6,2.7-0.6c1.1,0,2,0.2,2.8,0.6c0.8,0.4,1.5,0.9,1.9,1.6s0.7,1.5,0.7,2.4c0,1.1-0.3,2.1-1,2.9
					c-0.7,0.8-1.5,1.6-2.6,2.3c-0.1,0.1-0.1,0.1,0,0.2c0.8,1,1.8,2.1,3,3.5c0.1,0.1,0.1,0.1,0.2,0c0.4-0.5,1-1.2,1.7-2.2
					c0.1-0.2,0.3-0.2,0.4-0.1l1.8,1.1c0.2,0.1,0.3,0.3,0.1,0.4c-0.8,1.2-1.5,2.2-2.3,3l0,0.1c0,0.1,0,0.1,0.1,0.2
					c0.7,0.8,1.3,1.5,1.9,2.2c0.1,0.2,0.2,0.3,0.3,0.4c0.1,0.1,0.2,0.2,0.3,0.3C168.9,149.3,169,149.4,169,149.4z M162.2,146
					c0.1-0.1,0.1-0.1,0-0.2c-0.1-0.1-0.2-0.2-0.3-0.3c-0.1-0.1-0.2-0.2-0.3-0.3c-0.2-0.3-0.6-0.7-1.2-1.3l-0.6-0.7
					c-0.3-0.3-0.6-0.7-1.1-1.2c0-0.1-0.1-0.1-0.2,0c-0.8,0.5-1.4,1-1.9,1.5c-0.4,0.5-0.7,1.1-0.7,1.7c0,0.6,0.2,1.1,0.7,1.5
					c0.5,0.4,1.1,0.6,1.9,0.6C159.7,147.2,160.9,146.8,162.2,146z M158,133.8c-0.4,0.3-0.6,0.8-0.6,1.4c0,0.3,0.1,0.7,0.3,1
					c0.2,0.4,0.7,1,1.4,1.8c0.1,0.1,0.1,0.1,0.2,0c0.8-0.5,1.4-1,1.8-1.4c0.4-0.5,0.6-1,0.6-1.5c0-0.6-0.2-1-0.6-1.3
					c-0.4-0.3-0.9-0.5-1.6-0.5C158.9,133.3,158.4,133.5,158,133.8z"/>
				<path class="st0" d="M180.6,149.1c-1-0.5-1.8-1.3-2.4-2.2s-0.8-2.1-0.8-3.3v-6.7c0-1.3,0.3-2.4,0.8-3.3s1.4-1.7,2.4-2.2
					c1-0.5,2.2-0.8,3.6-0.8c1.3,0,2.5,0.3,3.6,0.8s1.8,1.2,2.4,2.1c0.6,0.9,0.8,2,0.8,3.2c0,0.1,0,0.2-0.1,0.2s-0.1,0.1-0.2,0.1
					l-2.5,0.1c-0.2,0-0.3-0.1-0.3-0.3c0-1.1-0.3-1.9-1-2.6c-0.7-0.7-1.5-1-2.6-1c-1.1,0-2,0.3-2.7,1c-0.7,0.7-1,1.5-1,2.6v6.9
					c0,1.1,0.3,1.9,1,2.6s1.6,1,2.7,1c1.1,0,2-0.3,2.6-1c0.7-0.6,1-1.5,1-2.6c0-0.2,0.1-0.3,0.3-0.3l2.5,0.1c0.1,0,0.2,0,0.2,0.1
					c0.1,0.1,0.1,0.1,0.1,0.2c0,1.2-0.3,2.3-0.8,3.2s-1.4,1.7-2.4,2.2s-2.2,0.8-3.6,0.8C182.8,149.9,181.6,149.6,180.6,149.1z"/>
				<path class="st0" d="M194.4,149.5c-0.1-0.1-0.1-0.1-0.1-0.2v-18.4c0-0.1,0-0.2,0.1-0.2s0.1-0.1,0.2-0.1h2.5c0.1,0,0.2,0,0.2,0.1
					c0.1,0.1,0.1,0.1,0.1,0.2v18.4c0,0.1,0,0.2-0.1,0.2c-0.1,0.1-0.1,0.1-0.2,0.1h-2.5C194.6,149.6,194.5,149.6,194.4,149.5z"/>
				<path class="st0" d="M212.9,149.4l-0.9-2.9c0-0.1-0.1-0.1-0.1-0.1h-7.2c-0.1,0-0.1,0-0.1,0.1l-0.9,2.9c-0.1,0.2-0.2,0.3-0.4,0.3
					h-2.7c-0.1,0-0.2,0-0.2-0.1c-0.1-0.1-0.1-0.2,0-0.3l5.9-18.4c0.1-0.2,0.2-0.3,0.4-0.3h3.4c0.2,0,0.3,0.1,0.4,0.3l5.9,18.4
					c0,0,0,0.1,0,0.1c0,0.2-0.1,0.2-0.3,0.2h-2.7C213.1,149.6,213,149.5,212.9,149.4z M205.5,143.9h5.5c0.1,0,0.1-0.1,0.1-0.2
					l-2.8-9.1c0-0.1,0-0.1-0.1-0.1c0,0-0.1,0-0.1,0.1l-2.8,9.1C205.4,143.8,205.4,143.9,205.5,143.9z"/>
				<path class="st0" d="M229.7,130.7c0.1,0.1,0.1,0.1,0.1,0.2v2.1c0,0.1,0,0.2-0.1,0.2s-0.1,0.1-0.2,0.1h-5c-0.1,0-0.1,0-0.1,0.1
					v15.8c0,0.1,0,0.2-0.1,0.2c-0.1,0.1-0.1,0.1-0.2,0.1h-2.5c-0.1,0-0.2,0-0.2-0.1s-0.1-0.1-0.1-0.2v-15.8c0-0.1,0-0.1-0.1-0.1
					h-4.8c-0.1,0-0.2,0-0.2-0.1s-0.1-0.1-0.1-0.2v-2.1c0-0.1,0-0.2,0.1-0.2s0.1-0.1,0.2-0.1h13.2
					C229.5,130.6,229.6,130.6,229.7,130.7z"/>
			</g>
		</g>
		<g>
			<g>
				<path class="st0" d="M77.2,121.1l-1.5-5c-0.1-0.1-0.1-0.2-0.2-0.2H63.1c-0.1,0-0.2,0.1-0.2,0.2l-1.5,5c-0.1,0.3-0.3,0.5-0.6,0.5
					H56c-0.2,0-0.3-0.1-0.4-0.2c-0.1-0.1-0.1-0.3,0-0.5l10.2-31.6c0.1-0.3,0.3-0.5,0.6-0.5h5.9c0.3,0,0.5,0.2,0.6,0.5L83,120.9
					c0,0.1,0,0.1,0,0.2c0,0.3-0.2,0.4-0.5,0.4h-4.7C77.5,121.5,77.3,121.4,77.2,121.1z M64.5,111.6H74c0.2,0,0.2-0.1,0.2-0.3
					l-4.8-15.7c0-0.1-0.1-0.2-0.1-0.2s-0.1,0.1-0.1,0.2l-4.8,15.7C64.2,111.5,64.3,111.6,64.5,111.6z"/>
				<path class="st0" d="M87.5,121.4c-0.1-0.1-0.2-0.2-0.2-0.4V89.3c0-0.2,0.1-0.3,0.2-0.4s0.2-0.2,0.4-0.2h4.3
					c0.2,0,0.3,0.1,0.4,0.2s0.2,0.2,0.2,0.4V121c0,0.2-0.1,0.3-0.2,0.4c-0.1,0.1-0.2,0.2-0.4,0.2h-4.3
					C87.7,121.5,87.6,121.5,87.5,121.4z"/>
				<path class="st0" d="M99.2,93.4c-0.6-0.6-0.9-1.4-0.9-2.4c0-1,0.3-1.8,0.9-2.4c0.6-0.6,1.4-0.9,2.4-0.9c1,0,1.8,0.3,2.4,0.9
					c0.6,0.6,0.9,1.4,0.9,2.4c0,1-0.3,1.8-0.9,2.4c-0.6,0.6-1.4,0.9-2.4,0.9C100.6,94.3,99.8,94,99.2,93.4z M98.9,121.4
					c-0.1-0.1-0.2-0.2-0.2-0.4V98.1c0-0.2,0.1-0.3,0.2-0.4c0.1-0.1,0.2-0.2,0.4-0.2h4.3c0.2,0,0.3,0.1,0.4,0.2
					c0.1,0.1,0.2,0.2,0.2,0.4V121c0,0.2-0.1,0.3-0.2,0.4c-0.1,0.1-0.2,0.2-0.4,0.2h-4.3C99.2,121.5,99.1,121.5,98.9,121.4z"/>
				<path class="st0" d="M124.8,98.3c1.5,0.7,2.7,1.6,3.5,2.8c0.8,1.2,1.2,2.6,1.2,4.1V121c0,0.2-0.1,0.3-0.2,0.4
					c-0.1,0.1-0.2,0.2-0.4,0.2h-4.3c-0.2,0-0.3-0.1-0.4-0.2c-0.1-0.1-0.2-0.2-0.2-0.4v-1.5c0-0.1,0-0.1-0.1-0.2
					c-0.1,0-0.1,0-0.2,0.1c-1.5,1.7-3.7,2.5-6.6,2.5c-2.3,0-4.3-0.6-5.8-1.8s-2.3-3-2.3-5.3c0-2.4,0.9-4.3,2.6-5.7
					c1.7-1.4,4.1-2,7.2-2h5c0.2,0,0.2-0.1,0.2-0.2v-1.1c0-1.2-0.4-2.2-1.1-2.8c-0.7-0.7-1.8-1-3.2-1c-1.2,0-2.1,0.2-2.9,0.6
					c-0.7,0.4-1.2,1-1.4,1.8c-0.1,0.4-0.3,0.5-0.7,0.5l-4.5-0.6c-0.2,0-0.3-0.1-0.4-0.2c-0.1-0.1-0.1-0.2-0.1-0.3
					c0.2-1.9,1.3-3.5,3.1-4.7c1.8-1.2,4-1.8,6.8-1.8C121.5,97.2,123.3,97.6,124.8,98.3z M122.4,116.4c1.1-0.8,1.6-1.8,1.6-3.1v-2.2
					c0-0.2-0.1-0.2-0.2-0.2h-3.9c-1.7,0-3,0.3-3.9,0.9c-1,0.6-1.4,1.5-1.4,2.7c0,1,0.4,1.8,1.1,2.3s1.7,0.8,2.8,0.8
					C120,117.6,121.3,117.2,122.4,116.4z"/>
				<path class="st0" d="M152.4,99.5c1.5,1.5,2.3,3.5,2.3,6.1V121c0,0.2-0.1,0.3-0.2,0.4c-0.1,0.1-0.2,0.2-0.4,0.2h-4.3
					c-0.2,0-0.3-0.1-0.4-0.2c-0.1-0.1-0.2-0.2-0.2-0.4v-14.2c0-1.4-0.4-2.6-1.2-3.5c-0.8-0.9-1.9-1.3-3.2-1.3s-2.4,0.4-3.3,1.3
					c-0.8,0.9-1.2,2-1.2,3.5V121c0,0.2-0.1,0.3-0.2,0.4c-0.1,0.1-0.2,0.2-0.4,0.2h-4.3c-0.2,0-0.3-0.1-0.4-0.2
					c-0.1-0.1-0.2-0.2-0.2-0.4V98.2c0-0.2,0.1-0.3,0.2-0.4c0.1-0.1,0.2-0.2,0.4-0.2h4.3c0.2,0,0.3,0.1,0.4,0.2
					c0.1,0.1,0.2,0.2,0.2,0.4v1.5c0,0.1,0,0.2,0.1,0.2c0.1,0,0.1,0,0.1-0.1c1.3-1.7,3.2-2.5,5.8-2.5C148.9,97.2,150.9,98,152.4,99.5
					z"/>
				<path class="st0" d="M158.9,121.4c-0.1-0.1-0.2-0.2-0.2-0.4v-4c0-0.3,0.1-0.5,0.2-0.7l11.5-13.5c0.2-0.2,0.1-0.3-0.1-0.3h-10.8
					c-0.2,0-0.3-0.1-0.4-0.2s-0.2-0.2-0.2-0.4v-3.8c0-0.2,0.1-0.3,0.2-0.4c0.1-0.1,0.2-0.2,0.4-0.2h17c0.2,0,0.3,0.1,0.4,0.2
					c0.1,0.1,0.2,0.2,0.2,0.4v4c0,0.2-0.1,0.5-0.3,0.7l-11.8,13.5c-0.1,0.2-0.1,0.3,0.1,0.3h11.5c0.2,0,0.3,0.1,0.4,0.2
					c0.1,0.1,0.2,0.2,0.2,0.4v3.8c0,0.2-0.1,0.3-0.2,0.4c-0.1,0.1-0.2,0.2-0.4,0.2h-17.4C159.2,121.5,159,121.5,158.9,121.4z"/>
				<path class="st0" d="M196,98.3c1.5,0.7,2.7,1.6,3.5,2.8c0.8,1.2,1.2,2.6,1.2,4.1V121c0,0.2-0.1,0.3-0.2,0.4
					c-0.1,0.1-0.2,0.2-0.4,0.2h-4.3c-0.2,0-0.3-0.1-0.4-0.2c-0.1-0.1-0.2-0.2-0.2-0.4v-1.5c0-0.1,0-0.1-0.1-0.2
					c-0.1,0-0.1,0-0.2,0.1c-1.5,1.7-3.7,2.5-6.6,2.5c-2.3,0-4.3-0.6-5.8-1.8s-2.3-3-2.3-5.3c0-2.4,0.9-4.3,2.6-5.7
					c1.7-1.4,4.1-2,7.2-2h5c0.2,0,0.2-0.1,0.2-0.2v-1.1c0-1.2-0.4-2.2-1.1-2.8c-0.7-0.7-1.8-1-3.2-1c-1.2,0-2.1,0.2-2.9,0.6
					c-0.7,0.4-1.2,1-1.4,1.8c-0.1,0.4-0.3,0.5-0.7,0.5l-4.5-0.6c-0.2,0-0.3-0.1-0.4-0.2c-0.1-0.1-0.1-0.2-0.1-0.3
					c0.2-1.9,1.3-3.5,3.1-4.7c1.8-1.2,4-1.8,6.8-1.8C192.7,97.2,194.5,97.6,196,98.3z M193.6,116.4c1.1-0.8,1.6-1.8,1.6-3.1v-2.2
					c0-0.2-0.1-0.2-0.2-0.2h-3.9c-1.7,0-3,0.3-3.9,0.9c-1,0.6-1.4,1.5-1.4,2.7c0,1,0.4,1.8,1.1,2.3s1.7,0.8,2.8,0.8
					C191.2,117.6,192.5,117.2,193.6,116.4z"/>
			</g>
		</g>
	</g>
	<g>
		<path class="st0" d="M339,66.5c-1.2-1.5-4-4-5.5-5.5c-2.3-2.3-2.9-2.9-2.9-6.8V37.7c0-2.4-3.6-2-3.6,0.1c0,0-0.3,28.7,0,31.1
			c0.3,2.4-1,4.3,2.9,6.8c4.3,2.7,10.5,4.5,10.5,4.5s0.1-6.3,0.2-8.7C340.7,69.3,340.1,68,339,66.5 M337.1,75.5
			C337.1,75.5,337.1,75.5,337.1,75.5c-6.1-2.4-7.1-2-6.4-11.2C337.9,68.7,337.4,70.3,337.1,75.5"/>
		<path class="st0" d="M344.2,71.6c0.1,2.4,0.2,8.7,0.2,8.7s6.2-1.8,10.5-4.5c3.9-2.5,2.7-4.4,2.9-6.8c0.3-2.4,0-31.2,0-31.2
			c0-2.1-3.6-2.4-3.6-0.1v16.5c0,3.9-0.6,4.5-2.9,6.8c-1.5,1.5-4.3,4-5.5,5.5C344.7,68,344.2,69.3,344.2,71.6 M354.1,64.3
			c0.8,9.2-0.3,8.7-6.4,11.2c0,0,0,0,0,0C347.5,70.3,347,68.7,354.1,64.3"/>
		<path class="st0" d="M347.2,49.7c-2.1-3.8,0,0-2.9-4.9V26.6c0-2.8-3.6-2.6-3.6,0l0,18.2c0,0-3.1,5.2-3.9,7.2
			c-0.9,2.1-2,4.5,0.9,7.8c0.2,0.3,0.6,0.9,4.8,4.9l0.1-0.1c0,0,0,0,3.7-3.7C351,56.4,349.3,53.5,347.2,49.7 M342.5,60.3
			c-7-3.7-2-8.8,0-12.1l0.2,0.3C347.8,56.2,346.4,57.3,342.5,60.3"/>
		<path class="st0" d="M340.4,88.8c-0.2-3.6-1.4-6.7-8.8-9.5c-6.1-2.3-14.8-2.8-21.2-3.8c-6.3-1-16.8-2.7-22-7.7
			c3.9,13.1,13.8,18.5,23.8,20.7c11.3,2.4,21.5,3.4,27.6,7.7l0.6,0.4C340.1,93.5,340.6,92.3,340.4,88.8 M337.2,90.5
			c-5.4-2.1-9-2.6-18.8-4.6c-9.8-2-15.6-3.8-20.9-9.3c8.5,3.3,22,4.4,29.4,6C334.4,84.2,336.5,86.1,337.2,90.5L337.2,90.5z"/>
		<path class="st0" d="M344.3,96.6l0.6-0.4c6.2-4.3,16.3-5.3,27.6-7.7c10-2.1,19.8-7.6,23.8-20.7c-5.2,5-15.7,6.7-22,7.7
			c-6.3,1-15,1.5-21.2,3.8c-7.3,2.7-8.6,5.9-8.8,9.5C344.2,92.3,344.7,93.5,344.3,96.6 M347.5,90.5c0.8-4.4,2.8-6.3,10.2-7.9
			c7.4-1.6,21-2.7,29.4-6c-5.3,5.5-11.1,7.3-20.8,9.3C356.6,87.9,353,88.4,347.5,90.5L347.5,90.5z"/>
		<path class="st0" d="M340,105.4c0.1-7-3.9-9-9.9-10.6c-6-1.6-14.4-2.8-21.5-4.8c-7.1-2.1-11.1-3.4-15.9-8.6
			c1,10.2,8.1,17.4,16.9,20.5c8.8,3.1,8.3,2.4,13,3.6c4.7,1.2,5.6,2.9,5.6,5.8v6H340C340.2,103.7,339.9,112.4,340,105.4
			 M336.6,113.5h-4.8c0,0,0.1-2-0.2-5.4c-0.4-4.5-5.6-4.9-14.3-7.3c-5.9-1.6-13.7-3.8-17.1-9.7c2.1,0.9,6.3,2.7,13.2,4.1
			c6.5,1.3,10.3,2.1,16.3,3.4c5.7,1.2,6.9,4.7,6.9,8.6V113.5z"/>
		<path class="st0" d="M344.6,117.3h11.8v-6c0-2.9,0.9-4.7,5.6-5.8c4.7-1.2,4.3-0.6,13-3.6c8.8-3.1,15.9-10.3,16.9-20.5
			c-4.8,5.2-8.8,6.6-15.9,8.6c-7.1,2.1-15.5,3.2-21.5,4.8c-6,1.6-10,3.6-9.9,10.6C344.7,112.4,344.3,103.7,344.6,117.3 M348,107.2
			c0-3.9,1.1-7.4,6.9-8.6c6-1.3,9.8-2,16.3-3.4c6.9-1.4,11.1-3.2,13.2-4.1c-3.5,5.9-11.2,8.1-17.1,9.7c-8.6,2.4-13.9,2.8-14.3,7.3
			c-0.3,3.4-0.2,5.4-0.2,5.4H348V107.2z"/>
		<path class="st0" d="M316.2,150.2c-1.5,0.4-3.1,0.7-4.7,0.7c-6.7,0-11.3-3.3-11.3-10.3c0-7.1,4.3-11,11.3-11
			c1.4,0,3.2,0.3,4.7,0.9l-0.3,3.5c-1.6-0.9-3-1.1-4.5-1.1c-4.3,0-6.9,3.2-6.9,7.5c0,4.2,2.6,7.4,7,7.4c1.6,0,3.6-0.4,4.5-0.9
			L316.2,150.2z"/>
		<path class="st0" d="M335.4,133.8c-1.6-0.7-3.7-1.1-5.3-1.1c-4.8,0-7.5,3.3-7.5,7.5c0,4.2,2.6,7.4,7,7.4c1.1,0,2-0.1,2.7-0.3v-5.4
			H328v-3.3h8.3v11.1c-2.2,0.6-4.5,1.1-6.7,1.1c-6.7,0-11.3-3.3-11.3-10.3c0-7.1,4.3-11,11.3-11c2.4,0,4.3,0.3,6.1,0.9L335.4,133.8z
			"/>
		<rect x="340.3" y="129.8" class="st0" width="4.1" height="20.7"/>
		<path class="st0" d="M360.1,142.5h-6l3-8.5h0.1L360.1,142.5z M346.7,150.5h4.3l1.8-4.7h8.4l1.8,4.7h4.6l-8.1-20.7h-4.7
			L346.7,150.5z"/>
		<path class="st0" d="M374,133.1h1.4c2.1,0,4.4,0.2,4.4,2.7c0,2.6-2.3,2.9-4.4,2.9H374V133.1z M369.9,150.5h4.1v-8.6h1.3
			c1.7,0,2.3,0.6,2.9,2.1l2.5,6.5h4.6l-3.3-8.1c-0.4-0.9-1.1-2-2.2-2.1v-0.1c2.6-0.4,4.3-2.4,4.3-4.8c0-5.7-5.3-5.6-9.7-5.6h-4.5
			V150.5z"/>
	</g>
</g>
</svg>
